<?xml version="1.0" encoding="iso-8859-1"?>
<!-- Generator: Adobe Illustrator 22.0.1, SVG Export Plug-In . SVG Version: 6.00 Build 0)  -->
<svg version="1.1" id="Layer_1_1_" xmlns="http://www.w3.org/2000/svg" xmlns:xlink="http://www.w3.org/1999/xlink" x="0px" y="0px"
	 viewBox="0 0 64 64" style="enable-background:new 0 0 64 64;" xml:space="preserve">
<g id="Guide">
	<g>
	</g>
	<g>
	</g>
	<g>
	</g>
	<g>
	</g>
	<g>
	</g>
	<g>
	</g>
	<g>
	</g>
	<g>
	</g>
	<g>
	</g>
	<g>
	</g>
	<g>
	</g>
	<g>
	</g>
	<g>
	</g>
	<g>
	</g>
	<g>
	</g>
	<g>
	</g>
	<g>
	</g>
	<g>
	</g>
	<g>
	</g>
	<g>
	</g>
	<g>
	</g>
	<g>
	</g>
	<g>
	</g>
	<g>
	</g>
	<g>
	</g>
	<g>
	</g>
	<g>
	</g>
	<g>
	</g>
	<g>
	</g>
	<g>
	</g>
	<g>
	</g>
	<g>
	</g>
	<g>
	</g>
	<g>
	</g>
	<g>
	</g>
	<g>
	</g>
</g>
<path d="M32,26c6.617,0,12-5.383,12-12S38.617,2,32,2S20,7.383,20,14S25.383,26,32,26z M32,4c5.514,0,10,4.486,10,10
	s-4.486,10-10,10s-10-4.486-10-10S26.486,4,32,4z"/>
<path d="M32,38c-6.617,0-12,5.383-12,12s5.383,12,12,12s12-5.383,12-12S38.617,38,32,38z M32,60c-3.261,0-6.154-1.577-7.981-4H26
	c0.553,0,1-0.448,1-1v-6.865l4.359,3.633c0.371,0.31,0.91,0.31,1.281,0L37,48.135V55c0,0.552,0.447,1,1,1h1.981
	C38.154,58.423,35.261,60,32,60z M41.159,54H39v-8c0-0.388-0.225-0.741-0.576-0.906c-0.348-0.162-0.765-0.111-1.064,0.138L32,49.698
	l-5.359-4.466c-0.299-0.249-0.715-0.302-1.064-0.138C25.225,45.259,25,45.612,25,46v8h-2.159C22.303,52.774,22,51.422,22,50
	c0-5.514,4.486-10,10-10s10,4.486,10,10C42,51.422,41.697,52.774,41.159,54z"/>
<path d="M38,32c0,6.617,5.383,12,12,12s12-5.383,12-12s-5.383-12-12-12S38,25.383,38,32z M60,32c0,5.514-4.486,10-10,10
	s-10-4.486-10-10s4.486-10,10-10S60,26.486,60,32z"/>
<path d="M14,44c6.617,0,12-5.383,12-12s-5.383-12-12-12S2,25.383,2,32S7.383,44,14,44z M14,22c5.514,0,10,4.486,10,10
	s-4.486,10-10,10S4,37.514,4,32S8.486,22,14,22z"/>
<path d="M30,20h1v2h2v-2h1.5c1.93,0,3.5-1.57,3.5-3.5c0-1.254-0.669-2.348-1.663-2.966C36.75,12.959,37,12.26,37,11.5
	C37,9.57,35.43,8,33.5,8H33V6h-2v2h-1c-0.553,0-1,0.448-1,1v5v5C29,19.552,29.447,20,30,20z M34.5,18H31v-3h2.5h1
	c0.827,0,1.5,0.673,1.5,1.5S35.327,18,34.5,18z M31,10h2.5c0.827,0,1.5,0.673,1.5,1.5S34.327,13,33.5,13H31V10z"/>
<path d="M49,24v2h-5v2h8.586l-8.293,8.293c-0.286,0.286-0.372,0.716-0.217,1.09C44.23,37.756,44.596,38,45,38h4v2h2v-2h5v-2h-8.586
	l8.293-8.293c0.286-0.286,0.372-0.716,0.217-1.09C55.77,26.244,55.404,26,55,26h-4v-2H49z"/>
<path d="M8.316,32.949L10,32.388V37c0,0.552,0.447,1,1,1h8v-2h-7v-4.279l2.316-0.772l-0.633-1.897L12,29.612V25h-2v5.279
	l-2.316,0.772L8.316,32.949z"/>
<path d="M45.404,10.902c3.074,1.958,5.734,4.618,7.693,7.693l1.688-1.074c-1.676-2.63-3.826-4.979-6.297-6.893l3.684-0.644
	l-0.344-1.97L45.77,9.074c-0.407,0.071-0.728,0.384-0.809,0.789S45.056,10.68,45.404,10.902z"/>
<path d="M9.863,19.039c0.064,0.013,0.131,0.02,0.195,0.02c0.337,0,0.657-0.171,0.844-0.463c1.959-3.076,4.619-5.736,7.693-7.693
	l-1.074-1.688c-2.63,1.675-4.979,3.825-6.893,6.297l-0.644-3.684l-1.971,0.344l1.059,6.059C9.145,18.637,9.458,18.958,9.863,19.039z
	"/>
<path d="M12.172,55.985l6.059-1.059c0.407-0.071,0.728-0.384,0.809-0.789s-0.095-0.817-0.443-1.04
	c-3.074-1.958-5.734-4.618-7.693-7.693l-1.688,1.074c1.676,2.63,3.826,4.979,6.297,6.893l-3.684,0.644L12.172,55.985z"/>
<path d="M54.137,44.961c-0.4-0.084-0.817,0.096-1.039,0.443c-1.959,3.076-4.619,5.736-7.693,7.693l1.074,1.688
	c2.63-1.675,4.979-3.825,6.893-6.297l0.644,3.684l1.971-0.344l-1.059-6.059C54.855,45.363,54.542,45.042,54.137,44.961z"/>
</svg>
